When a criminal mastermind uses a trio of orphan girls as pawns for a grand scheme, he finds himself profoundly changed by the growing love between them..
 
http://www.imdb.com/title/tt1323594/

Subtitles (srt) : Dutch, English.

Covers included.

Gru (Steve Carrell) is een duivels meesterbrein die geniet van alles wat slecht is en van plan is om de maan te stelen. Hij verslaat iedereen die hem in de weg zit met zijn wapenverzameling van krimp- en vriesstralen en zijn gevechtsklare land- en luchtvoertuigen. Maar dan ontmoet hij op een dag drie kleine eigenwijze weesmeisjes die naar hem kijken en iets in hem zien wat nog nooit iemand heeft gezien: een mogelijke papa. ’s Werelds grootste schurk heeft zojuist zijn grootste uitdaging gevonden: drie kleine meisjes die Margo, Edith en Agnes heten.
 
http://www.moviemeter.nl/film/58983

Ondertitels (srt) : Engels, Nederlands.

Hoesjes bijgevoegd.

General
Complete name                    : Despicable Me-AC3-XviD-DVDRip[Eng]2010 TBS\Despicable Me-AC3-XviD-DVDRip[Eng]2010.avi
Format                           : AVI
Format/Info                      : Audio Video Interleave
File size                        : 1.36 GiB
Duration                         : 1h 30mn
Overall bit rate                 : 2 145 Kbps
Writing application              : VirtualDubMod 1.5.4.1 (build 2178/release)
Writing library                  : VirtualDubMod build 2178/release
Source                           : Despicable Me 2010 DVDR-FiCODVDR

Video
ID                               : 0
Format                           : MPEG-4 Visual
Format profile                   : Simple@L3
Format settings, BVOP            : No
Format settings, QPel            : No
Format settings, GMC             : No warppoints
Format settings, Matrix          : Default (H.263)
Codec ID                         : XVID
Codec ID/Hint                    : XviD
Duration                         : 1h 30mn
Bit rate                         : 1 751 Kbps
Width                            : 720 pixels
Height                           : 400 pixels
Display aspect ratio             : 16:9
Frame rate                       : 25.000 fps
Resolution                       : 8 bits
Colorimetry                      : 4:2:0
Scan type                        : Progressive
Bits/(Pixel*Frame)               : 0.243
Stream size                      : 1.11 GiB (82%)
Writing library                  : XviD 1.1.2 (UTC 2006-11-01)

Audio
ID                               : 1
Format                           : AC-3
Format/Info                      : Audio Coding 3
Codec ID                         : 2000
Duration                         : 1h 30mn
Bit rate mode                    : Constant
Bit rate                         : 384 Kbps
Channel(s)                       : 6 channels
Channel positions                : Front: L C R, Surround: L R, LFE
Sampling rate                    : 48.0 KHz
Stream size                      : 250 MiB (18%)
Alignment                        : Split accross interleaves
Interleave, duration             : 40 ms (1.00 video frame)
Interleave, preload duration     : 500 ms

Blackbeard  TBS